<svg xmlns="http://www.w3.org/2000/svg" height="800" width="1200" viewBox="-10.800105 -2.300855 93.60091 13.80513"><path fill="gray" d="M28.1114.85699v-.2907l-.12457-.083h-4.9827l-.08305.083v.2907l.08305.083h2.1176l.08304.083v6.0623l.08304.083h.3737l.08304-.083v-6.0208l.08304-.083h2.1592l.12457-.1245zm1.1217 1.4538c-1.3287 0-2.1191.95402-2.1191 2.3242v.20898c0 1.3288.66484 2.4902 2.2012 2.4902 1.3287 0 1.8271-.87182 1.9102-1.4531l-.08203-.08203h-.375l-.08203.08203c-.20761.5813-.58267.95508-1.3301.95508-1.2457 0-1.6191-1.1628-1.6191-1.7441l.08398-.08203h3.4453l.08398-.08399v-.29102c0-1.3702-.74694-2.3242-2.1172-2.3242zm0 .49805c.58132 0 .96437.23873 1.2031.56055.23875.32181.33203.72644.33203 1.0586l-.08203.08398H27.78l-.08398-.08398c0-.33215.09328-.73678.33203-1.0586.23875-.32181.62376-.56055 1.2051-.56055zm3.072 1.9928c0-1.3287.66436-2.0346 1.6194-2.0346.95502 0 1.3287.5813 1.4533 1.1626l.08304.083h.41522l.08304-.083c-.08304-.955-.87197-1.6193-2.0346-1.6193-1.2457 0-2.2007.7889-2.2007 2.4913 0 1.744.95502 2.4914 2.2007 2.4914 1.1626 0 1.91-.6644 2.0346-1.6194l-.08304-.083h-.3737l-.08304.083c-.08304.5813-.49827 1.1626-1.4533 1.1626-.95502 0-1.6609-.6643-1.6609-2.0346zm8.3045 2.3253v-2.9066c0-1.2457-.66436-1.91-1.7439-1.91-.66436 0-1.2457.2906-1.5363.7889h-.08304V.60784l-.12457-.1245h-.3737l-.08305.083v6.5606l.08305.083h.3737l.08304-.083v-2.6159c0-1.0796.49827-1.744 1.5363-1.744.78893 0 1.2457.4983 1.2457 1.4533v2.9066l.08304.083h.3737l.16609-.083zm4.8997 0v-2.9066c0-1.2457-.66436-1.91-1.7439-1.91-.66436 0-1.2457.2906-1.5363.7889h-.08304l-.08304-.5813-.08304-.083h-.29066l-.08304.083v4.609l.08304.083h.3737l.08304-.083v-2.6159c0-1.0796.49827-1.744 1.5363-1.744.78893 0 1.2457.4983 1.2457 1.4533v2.9066l.08304.083h.41522l.08305-.083zm2.7824-4.7751c-1.2457 0-2.2012.87289-2.2012 2.4922 0 1.6194.9555 2.4902 2.2012 2.4902s2.2012-.87083 2.2012-2.4902c0-1.6193-.9555-2.4922-2.2012-2.4922zm0 .45703c.47751 0 .8825.19783 1.168.55078.28547.35295.45117.86158.45117 1.4844 0 .62285-.1657 1.1314-.45117 1.4844-.28547.35294-.69046.54883-1.168.54883-.47751 0-.8825-.19589-1.168-.54883-.28547-.35294-.45117-.86152-.45117-1.4844 0-.6436.1657-1.1522.45117-1.5.28547-.34775.69046-.53516 1.168-.53516zm3.4875 4.3181V.56637l-.12457-.083h-.3737l-.08304.083v6.5606l.08304.083h.3737zm2.866-4.7751c-1.2457 0-2.2012.87289-2.2012 2.4922 0 1.6194.9555 2.4902 2.2012 2.4902s2.1992-.87083 2.1992-2.4902c0-1.6193-.95354-2.4922-2.1992-2.4922zm0 .45703c.47751 0 .88055.19783 1.166.55078.28547.35295.45312.86158.45312 1.4844 0 .62285-.16766 1.1314-.45312 1.4844-.28547.35294-.68851.54883-1.166.54883-.47751 0-.8825-.19589-1.168-.54883-.287-.353-.455-.8616-.455-1.4845 0-.6436.16766-1.1522.45312-1.5.28547-.34775.69046-.53516 1.168-.53516zm4.7324-.49805c-1.3287 0-2.0352 1.0785-2.0352 2.4902 0 1.4533.66491 2.4922 2.0352 2.4922.87197 0 1.3295-.37376 1.5371-.78906v.04102c0 1.2456-.2905 2.2012-1.4531 2.2012-.87197 0-1.163-.3728-1.2461-.8711l-.08398-.08398h-.37305l-.08398.08399c.08304.7889.6655 1.3281 1.8281 1.3281 1.2457 0 2.0352-.78912 2.0352-2.6992v-3.9863l-.08398-.08204h-.29102l-.08203.08204-.08398.58203h-.08203c-.20761-.3737-.66514-.78906-1.5371-.78906zm0 .45703c.47751 0 .86225.16458 1.127.50195.26471.33738.41016.84615.41016 1.5312 0 .68515-.14545 1.1939-.41016 1.5312-.26471.33736-.64944.50391-1.127.50391-.47751 0-.86225-.16654-1.127-.50391-.26471-.33736-.4082-.8461-.4082-1.5312 0-.66435.1435-1.1731.4082-1.5156.26471-.34256.64944-.51758 1.127-.51758zm3.6542-1.2049v-.5814l-.083-.083h-.37371l-.12456.083v.5814l.083.083h.3737zm0 5.564v-4.609l-.083-.083h-.37371l-.12456.083v4.609l.083.083h.3737zm2.7814-4.8161c-1.3287 0-2.1172.95402-2.1172 2.3242v.20898c0 1.3288.66484 2.4902 2.2012 2.4902 1.3287 0 1.8271-.87182 1.9102-1.4531l-.08398-.08203h-.37305l-.08398.08203c-.20762.5813-.58072.95508-1.3281.95508-1.2457 0-1.6191-1.1628-1.6191-1.7441l.08398-.08203h3.4453l.08398-.08398V4.6351c0-1.3287-.79042-2.3242-2.1191-2.3242zm0 .49805c.58132 0 .96632.23873 1.2051.56055.23875.32181.33203.72644.33203 1.0586l-.08398.08398h-2.9062l-.08203-.08398c0-.33215.09328-.73678.33203-1.0586.23875-.32181.62181-.56055 1.2031-.56055zm6.1875 3.1554c0-.8719-.49827-1.2456-1.4533-1.4532-.95501-.2077-1.5363-.2907-1.5363-.9551 0-.4982.3737-.7889 1.0796-.7889.87197 0 1.1626.3737 1.1626.872l.083.083h.3737l.0831-.083c0-.955-.78893-1.3287-1.744-1.3287-1.0796 0-1.6194.5813-1.6194 1.2456 0 .789.58131 1.1627 1.5363 1.3288.95502.2076 1.4533.2906 1.4533 1.0795 0 .4983-.29066.872-1.2457.872-.87197 0-1.2457-.4983-1.2457-1.0796l-.0831-.083h-.3737l-.0831.083c0 .872.66436 1.5364 1.827 1.5364 1.2042.042 1.7855-.5398 1.7855-1.3288z"/><path fill="#007db8" d="M22.8794 5.7936v1.3747h-4.3205V.3928H20.13v5.4005h2.7494zM9.8184 0L5.9902 2.9473C5.5974 1.4743 4.3211.3926 2.75.3926H0V7.168h2.75c1.5711 0 2.9456-1.0798 3.2402-2.5527l3.8281 2.9453 3.8301-2.9453V7.168h4.3203V5.793H15.123V.3926h-1.5723v2.5527L9.9179 5.8926l-.78516-.6875 1.7676-1.375 1.866-1.4727-1.08-.8828-3.6333 2.8457-.7851-.6875 3.6324-2.75L9.82064 0h-.0019zM1.4727 1.7676h1.1777c.24549 0 .4861.05498.70703.15625.22094.10126.42386.24947.5957.43359.17184.18411.31197.40379.41016.65234.0982.24855.15234.52572.15234.82031 0 .27003-.04814.53339-.13867.77734-.0906.244-.22297.4679-.38867.6582-.1657.1902-.36434.34608-.58984.45508-.2255.1089-.47805.16992-.74805.16992H1.4727v-4.123z"/></svg>