<svg xmlns="http://www.w3.org/2000/svg" height="800" width="1200" viewBox="-230.15805 -83.28125 1994.7031 499.6875"><path d="M0 243.281c0 16.151 13.126 29.277 30.286 29.277h121.135V242.27H30.286v-30.282h119.115c16.151 0 32.302-13.125 32.302-29.276v1.011-59.563c0-16.15-15.14-32.302-32.302-32.302H30.286C14.131 91.859 0 108.01 0 124.16zm151.421-61.578H30.286v-60.568h121.135zm404.792-90.85H436.088c-16.15 0-32.301 16.152-32.301 32.303v120.125-1.01c0 16.15 16.15 30.287 32.301 30.287h119.115v30.28H434.068v30.287h122.145c16.151 0 29.276-14.136 29.276-30.286V123.156c0-16.15-13.125-32.303-29.276-32.303zm-1.01 151.418H434.068V121.135h121.135zM323.027 90.853h-89.839c-16.152 0-31.297 16.152-31.297 32.303v149.402h30.286V121.135h90.85c16.15 0 30.285 15.141 30.285 32.302v119.12h30.281v-119.12c0-33.312-27.254-62.584-60.566-62.584zm434.072 151.418H635.964v-89.844c0-16.151 16.15-32.302 33.312-32.302h87.823v151.422h30.281V123.156c0-16.15-12.115-32.303-28.265-32.303h-89.839c-33.312 0-63.599 29.272-63.599 62.584v89.844c0 16.151 17.162 29.277 33.312 29.277h52.495c27.256 0 55.521-11.105 65.615-30.287v30.287M1443.533 0h-30.28v272.558h30.28V121.135h90.854V90.853h-90.854m-423.976 152.428c0 16.151 9.083 29.277 25.24 29.277h116.088v30.28h-111.041v30.287h115.077c16.152 0 26.246-14.136 26.246-31.297v1.01-179.682c0-16.15-10.094-32.303-26.246-32.303h-120.124c-16.157 0-25.24 16.152-25.24 32.303zm141.328-1.01h-111.041V121.135h111.041zM958.99 90.853H841.891c-16.151 0-34.318 16.152-34.318 32.303v120.125-1.01c0 16.15 18.167 30.287 34.318 30.287h147.385V0h-30.287zm0 151.418H837.855V121.135h121.134zm252.366 1.01c0 16.151 17.161 29.277 33.312 29.277h118.106V242.27H1241.64v-30.282h123.16c16.147 0 28.253-13.125 28.253-29.276v1.011-59.563c0-16.15-12.106-32.302-28.253-32.302h-120.133c-16.151 0-33.312 16.152-33.312 32.302zm151.418-61.578H1241.64v-60.568h121.133z" fill="#2b2d32"/></svg>