<svg xmlns="http://www.w3.org/2000/svg" height="800" width="1200" version="1.0" viewBox="-30.05025 -5.943 260.4355 35.658"><path d="M18.6957 4.6526h.7177l.7177.0265.718.0539.665.0795.6113.0529.2923.0268.2662.0529.2392.0539.2135.0529.3718.1063-.0792 1.2233-.0543 1.0371v.4255l.0272.2128.027.2124.0793.3198.0798.2916.0792.2667.08.106.0538.133.106.1864.133.1592.133.1063.1061.1336.1336.0795.079.0531.1865.08.0536.0259v.16l.0527.4517.027.3457.0262.3196v.3988l-.0261.4523-.0539.5848-.0259.5315-.08.452-.0799.3716-.08.3203-.0258.2126-.0532.1855-.6653.2397-.4517.1601-.5317.2117-.2928.1333-.265.1334-.639.3196-.6383.3715-.3193.2126-.372.2392-.2658.1867-.2397.2126-.2389.2126-.2401.239-.2385.2137-.2133.2648-.2119.2397-.1874.2391-.186.266-.159.2667-.1068.265-.08.16-.0526.1333-.0795.2918-.0804.2924-.0524.2918v.6387l.0263.346.0527.3196.0538.2916.0527.2935.0795.2394.08.266.1067.213-.1068.0517-.1594.081-.2124.079-.1067.0535h-.1592l-.2926.08h-.186l-.2126.026h-.3995l-.133-.026H15.93l-.2666-.08-.2919-.0536-.3196-.1321-.1331-.053-.1333-.0533-.2919-.1609-.2925-.2121-.2926-.1865-.266-.2385-.266-.24-.2657-.266-.2394-.267-.2392-.2916-.2396-.3186-.1065-.16-.1056-.1592-.2136-.3464-.2391-.4515-.2387-.4795-.4264-.9045-.3986-.904-.1856-.4247-.2128-.3728-.2126-.3706-.08-.186-.1335-.16-.2121-.2661-.08-.1327-.1331-.1333-.1068-.1056-.1329-.1068-.1063-.0536-.1592-.079-.1063-.0802-.133-.0266h-.1602l-.1327-.0256-.133.0256h-.2398l-.1324.0266-.08.0532-.106.0536-.1075.0527-.079.0273-.1592.1588-.1595.1333-.1075.16-.1582.1326-.107.1594-.1331.1343-.1324.1314-.1334.1334-.0792.0543-.08.052-.1862.0797-.0793.0268-.1068.0263H5.532l-.1333-.0263h-.1065l-.132-.0534-.1067-.0534-.1066-.0795-.2126-.16-.1067-.0791-.106-.1066-.1066-.0802-.08-.1065-.1592-.2387-.08-.1326-.08-.1331-.1328-.2665-.1599-.2655-.2387-.5317-.4257-.9308-.0533-.1334-.1063-.1328-.159-.2665-.213-.2392-.2122-.2389-.4793-.4525-.2662-.2126-.2392-.2389-.2394-.2392-.2133-.2664-.2119-.239-.1867-.2934-.1592-.3185-.08-.186-.08-.1592L.107 9.838l-.0268-.213-.0531-.2127L0 9.1731h6.5152V0h6.117v3.855l.1056.0799.1066.08.1333.0799.1863.0797.1857.0527.2394.08.2124.0531.2667.0527-.6919 3.0845h-1.9416l-.6648 2.7397h1.9952l-.718 3.3512-.106.5052-.0273.2925-.0527.3187v.6385l.0261.2928.0266.133.0273.1327.0797.2126.079.1872.1073.1848.1062.16.1322.1857.1065.1329.1604.1334.1592.1065.1066.1058.2126.0536.1594.08.1867.0793.1851.0266.1867.0266.2126.0263h.505l.3193-.0263.2926-.0266.3193-.0529.5579-.1065.2666-.08.2124-.0524.2394-.08.2126-.0543.2926-.1058.2927-.133.6115-2.3396-.0795.0268-.1331.0263h-.292l-.2931.0259-.2655.0266h-.1334l-.1065-.0266-.079-.026h-.0268l-.0266-.0262-.0266-.0268-.0533-.0266-.0266-.08-.0527-.053-.0268-.133-.0268-.1059.0268-.0802.0268-.2669.8238-3.5628h1.9416l.6378-2.7395h-1.994l.638-2.8451zm-3.75 1.0912h2.393l-1.9672 8.7218h-2.3138zm1.6487-3.3512h.1602l.106.0263.1324.0261.107.0275.1066.0525.106.08.1063.0528.0795.0795.1592.1868.0804.1062.0527.107.027.1059.0266.1597.0259.1065v.266l-.0259.133-.0265.1064-.027.1326-.0528.1065-.0804.079-.0524.1336-.08.0537-.08.1063-.1063.0526-.1063.0539-.1065.0527-.106.027-.133.0256-.1326.027h-.2927l-.1066-.027-.133-.0256-.1069-.027-.1326-.0527-.1065-.0539-.0797-.0526-.1066-.0793-.0797-.0807-.0793-.106-.0533-.1066-.0532-.0792-.0268-.16-.0527-.1062-.0263-.1331v-.266l.0263-.1065.0527-.1327.0268-.1065.0532-.107.0533-.1324.1066-.08.0524-.079.1066-.1072.106-.053.1068-.0799.1058-.0524.1336-.0276.1063-.026.1326-.0264h.1068v-.0002zm113.4578 11.3403l.1592-.0534.1602-.0793.2923-.1594.1328-.0541.0534-.0525.0525-.027.1333-.1331.0802-.0797.1324-.132.0802-.1333.0534-.1063.0802-.16.0263-.133.0266-.1331.0259-.1588-.0259-.187-.0266-.1599-.0534-.1587-.08-.1338-.0533-.186-.1058-.1066-.1077-.106-.1315-.1324-.1333-.08-.133-.0795-.1598-.08-.1592-.053-.1334-.0535-.1858-.0533-.1587-.0269h-1.8087l-.1068.0269-.08.0533-.1067.0534-.1065.0532-.0252.08-.054.1062-.026.1327-.0265.1065v2.5794l.0265 1.3296v2.9246l.026.1602.0265.1599.0273.0792.0251.1334.0541.1048.1066.1868.0526.0536.08.08.1592.0802.1068.0263.08.0527.1857.0265v.2926h-4.1491v-.2926h.1077l.08-.0265.1048-.0527.0802-.0263.1592-.0802.0544-.08.079-.0536.0802-.1056.0265-.0812.0534-.1048.0266-.1334.0524-.0792.0276-.16v-7.3918l-.0276-.1336-.0265-.1602-.0257-.1326-.0536-.1065-.0531-.1061-.0273-.08-.0795-.1065-.0524-.0792-.0802-.0269-.1602-.1067-.0792-.0534-.0793-.0266-.1877-.0254v-.2925h6.0644l.3986.026.3725.053.345.0536.3462.1051.1592.0546.1334.0254.1855.08.1336.0536.2657.1592.1058.08.1334.0799.1056.1072.106.0786.08.1063.1077.1063.079.1333.08.1065.0536.1336.079.106.0268.1325.0532.186.0266.1333.027.1602.0256.159v.1865l-.0256.1862v.1858l-.027.1595-.0534.1326-.0534.1599-.0264.1602-.0526.106-.0802.159-.1602.1865-.08.106-.0799.1056-.1853.1602-.1334.0543-.0792.1058-.2401.1059-.2126.133-.2392.0796-.2391.0802-.2397.0802-.2126.0529-.3725.0794.2394.1059.213.1075.2122.1324.2133.1596.1858.1331.1592.1602.1594.1585.16.187.1601.1857.1326.159.2924.3718.2387.3735.2133.3995.2126.345.2133.3462.079.1583.1063.1601.2128.2392.1068.1333.1326.105.1068.1076.1324.079.1067.0537.1334.0534.1592.0265.1594.0266v.2394l-.212.1068-.32.1056-.186.0265-.2125.0537-.2394.0265h-.5851l-.1592-.0265-.1334-.0266-.3194-.0536-.266-.079-.2393-.1068-.2133-.1334-.212-.1058-.1867-.1867-.1592-.1592-.1333-.1592-.1595-.1595-.1055-.2126-.1334-.1865-.0802-.2135-.1858-.4243-.3718-.8245-.1865-.3725-.0792-.2126-.1334-.1333-.1065-.1324-.1326-.1604-.1329-.1049-.1333-.1065-.1858-.08-.0812-.0536-.1058-.0275-.0792-.0259h-1.7547v.0259-.0259l-.0265-.3993v-.8504h1.1429l.4259-.0256h.718zm-40.314-6.1695v-.3455l-.0268-.1324-.0536-.1601-.0525-.1066-.027-.1058-.0525-.0792-.0797-.081-.0266-.0792-.08-.0534-.1598-.1068-.08-.0533-.079-.0266-.187-.0261v-.2921h4.335v.292l-.0798.0262h-.08l-.1862.08-.0792.0536-.054.0531-.0523.0534-.08.0792-.0536.081-.08.0792-.0258.1058-.0532.1066-.0268.1601-.0266.1324-.0266.1592v10.6382l.0261.1585.0266.1334.0268.1329.0532.1055.0534.1068.0526.0802.0537.1073.08.052.0524.0533.0538.0534.1058.0534.1597.0792h.16v.3194h-4.3352v-.3194h.187l.079-.0266.08-.0526.1598-.1066.08-.0533.0266-.0802.1321-.1593.027-.1326.0525-.1065.0805-.2394V7.5634zm14.2001 12.0208h-.3725l-6.914-7.3132v5.7443l.0272.132.0266.1599.0261.106.0536.1066.0264.1326.0531.0536.0795.1056.0534.0536.0802.08.1329.1065h.1058l.107.0527.1597.0266v.3193h-3.2181v-.3193l.107-.0266.1053-.0259.1075-.0265.079-.0264.08-.0536.0527-.0534.08-.0534.0799-.0536.0527-.1056.0534-.0811.0265-.1049.0534-.1065.0268-.106.0264-.16.027-.132v-7.2872l-.027-.1599-.0264-.1329-.0268-.1321-.026-.1063-.054-.1073-.0533-.08-.0266-.0799-.0797-.0792-.0795-.0269-.1597-.1067-.1867-.08-.2124-.0254v-.2925h2.9514l5.2923 5.743v-4.3068l-.0266-.1336-.0265-.1602-.0259-.1326-.0541-.1065v-.1061l-.0795-.08-.0531-.079-.0805-.08-.0531-.0533-.1592-.1068-.186-.08-.1868-.0253v-.2926h3.2179v.2926l-.1066.0254h-.0802l-.1055.0265-.0537.0534-.1857.1068-.0534.0268-.0795.0792-.08.1066-.0265.08-.0534.106-.0537.1065-.0526.2926-.0266.1336v8.8288zm40.7138-3.5372l-.0278.291v.4796l-.0531.2126-.0793.2392-.08.1874-.0792.2121-.1067.1858-.1063.1867-.1331.1327-.1334.1599-.1049.1329-.1867.1067-.1333.1327-.1592.1338-.1604.0785-.1856.1068-.1594.079-.1863.0812-.1597.079-.3725.1333-.186.0524-.2126.0537-.3716.0524-.3468.0534-.345.0278h-.6919l-.3728-.0278-.371-.0534-.3723-.0524-.3725-.1059-.3987-.1067-.2125-.08-.1602-.1068-.1855-.0526-.1858-.1334-.1604-.0785-.159-.1338-.186-.1068-.1326-.1326-.1343-.1056-.1592-.1604-.1066-.1592-.1326-.1868-.08-.1857-.1058-.186-.0536-.1858-.08-.2406-.0266-.0798-.0256-.1326-.0543-.2657v-5.6641l-.0256-.1592v-.1336l-.0276-.1334-.0526-.1592-.0534-.1065-.0541-.1326-.106-.16-.0798-.0792-.0527-.0534-.08-.0524-.0801-.0537-.08-.0272-.0792-.0266-.1868-.0254v-.2926h4.1482v.2926l-.1858.0254-.0802.0266-.079.0272-.1601.1061-.0802.0534-.0525.0792-.1328.16-.0544.1326-.0256.1065-.0534.2926-.0266.1336v5.2916l.0266.3177v.1342l.0266.1334.0524.265.0802.2404.0534.0792.0536.1327.1327.1865.1326.1594.1602.1592.2125.1326.2134.1068.2125.1065.2129.0802.2655.0532.2657.0527h1.1161l.2667-.0527.2392-.0532.2396-.0802.2126-.1065.2124-.1068.186-.1326.1077-.079.1047-.0802.0543-.0802.08-.0792.0794-.1066.0532-.08.1326-.2118.0802-.2404.0802-.265.0256-.1334.0266-.1342v-.1583l.0275-.1594v-5.1324l-.0275-.1592v-.1336l-.0266-.1334-.0533-.1592-.0266-.1065-.0527-.106-.0536-.08-.0532-.1066-.0794-.0792-.0532-.0268-.187-.1068-.079-.0534-.0797-.0265-.1862-.0254v-.2926h3.191v.2926l-.1058.0254h-.08l-.0792.0265-.0795.0534-.1609.1068-.08.0268-.0526.0792-.08.1066-.0266.08-.0524.106-.0536.1065-.0536.2926-.0254.1336v5.2916zm-26.5941-4.7343v-.2384l-.0264-.16-.0526-.1328-.0537-.08-.0797-.08-.1058-.0533-.106-.0269h-.7719l-.266.0269h-.2126l-.2133.0263-.185.027-.1868.0534-.1601.0266-.1327.08-.1592.0526-.1333.0802-.1327.1327-.1599.1338-.1594.1592-.3184.3988-.2404-.106.7711-2.3134h8.4312l.7967 2.3134-.266.106-.3184-.3988-.1326-.1592-.1602-.1338-.1335-.1327-.1327-.0802-.1597-.0526-.1333-.08-.1597-.0266-.1858-.0534-.186-.027-.1867-.0263h-.2392l-.2392-.0269h-.7445l-.1317.0271-.1333.0534v.0266l-.0537.0533-.0524.0266-.0266.0534-.0534.1329-.0265.1599v7.0728l.0524.266.08.2116.0802.0811.0265.1056.08.0802.08.0266.1326.1068.106.0531.08.0259.2133.0265v.3194h-4.1489v-.3194l.2133-.0265.1849-.079.1074-.0537.0527-.0533.0793-.0534.054-.0802.0527-.079.0534-.0812.0268-.1049.0527-.1065.0266-.1326v-.1334l.0263-.1319v-6.7024zm-8.0838-2.1797l.426.0265h.186l.2125.0259.3728.0538.2923.0261.2918.08.2401.08.2924.0801.1065.0257.053-.0257.0262-.0268.027-.0268.0257-.1329.0266-.0538.0275-.0261.2394-.0797.7711 2.4203-.2925.1061-.2136-.2128-.1058-.1329-.159-.1065-.1333-.1056-.1601-.1334-.186-.0797-.1858-.1063-.1858-.1065-.2133-.0534-.2383-.1068-.2405-.0534-.2916-.0526-.2392-.0264-.3203-.0273-.2916-.0256h-.1602l-.1592.0256-.3187.0273-.3722.079-.1592.027-.1604.0793-.1324.0805-.0802.0265-.08.0266-.1068.106-.0524.0537-.0802.0531-.0524.1334-.0802.159-.0536.1594v.3457l.0794.1865.08.1326.0266.0537.0802.0526.079.08.0534.0531.187.1061.1857.1068.2126.0792.2394.08.2401.1068.5052.1335.5578.1592.5851.1593.5846.1867.3194.1065.293.1049.2387.1333.267.1336.2647.159.2126.2135.2402.1851.186.2126.1599.213.0795.1602.0524.1058.1334.2919.0265.1592.0266.1343.0534.1592.0256.1865v.6905l-.0256.1867-.0534.1592-.0266.1592-.0536.1333-.1326.3187-.16.2942-.0794.132-.1063.1062-.106.1329-.1334.0802-.1068.1326-.159.1068-.2662.1858-.1592.1065-.1867.08-.3716.1594-.187.0534-.1857.0536-.4509.1327h-.2135l-.239.0533-.4787.0541h-.9304l-.3725-.0282-.3727-.0524-.3457-.0266-.3455-.0536-.3194-.079-.585-.1592h-.1595l-.0527.0256-.0273.0266-.0265.0265-.0264.0536-.0527.1056-.0268.0537h-.0263l-.107.0533-.1324.0257-1.0915-2.9512.3201-.1058.186.1858.159.186.1604.1592.1858.1867.2126.16.2128.1592.2392.1328.2401.1322.266.1338.2384.1065.2935.1059.2916.08.3194.0535.3196.0532.345.0527h.6653l.2657-.0254.2663-.0539.2391-.0536.2126-.0532.186-.0792.1334-.08.1329-.08.0797-.0535.0534-.079.0795-.0803.08-.1333.0801-.106.0534-.1325v-.1074l.0266-.1317v-.2404l-.0266-.1058v-.08l-.0266-.1065-.1068-.1592-.08-.1602-.0794-.0792-.079-.08-.1602-.1067-.1867-.106-.2119-.0798-.2126-.1058-.2399-.08-.5044-.1336-.5585-.186-.5593-.1322-.5585-.1867-.2916-.1058-.2926-.1068-.24-.1333-.2653-.1059-.2402-.1594-.2118-.159-.2126-.187-.1868-.2123-.08-.1068-.0799-.1067-.1326-.265-.1329-.2663-.0534-.1319-.0265-.1602v-.1862l-.0266-.1602-.0266-.1858v-.3457l.0266-.1865.0266-.159.0265-.16.0534-.1598.0527-.1321.0802-.16.079-.1335.08-.1327.0802-.107.1333-.133.1065-.1327.1329-.1065.1058-.1061.2923-.2126.1334-.08.1329-.079.1867-.0809.1592-.079.3194-.1326.345-.1066.187-.0526.1857-.0537.3716-.0538.3727-.0259zm48.6915 8.6958v.345l.0266.1334.0266.106.0534.1066.0802.1326.0256.0802.079.079.0811.0802.0527.0534.1058.0534.08.0534.1862.0526.1597.0266v.3194h-4.2015v-.3194l.1594-.0266h.08l.1067-.0526.1334-.1066.0795-.0533.08-.0802.1057-.1593.0534-.1326.0534-.1065.027-.2394.0264-.1585v-5.0268l-3.6976 6.6485h-.2124l-3.8556-6.8343v5.3708l.0532.1334.0268.106.0524.1066.08.1326.0265.0802.0802.079.08.0802.0536.0534.1058.0534.08.0534.1858.0526.1592.0266v.3194h-3.2437v-.3194l.1604-.0266h.1046l.08-.0526.1601-.1066.0536-.0533.0802-.0802.1066-.1593.0527-.1326.0524-.1065.0543-.2394.0257-.1585v-7.3404l-.0257-.0805-.0275-.159v-.0792l-.0266-.0807-.0524-.1058-.0527-.1063-.0275-.08-.079-.0799-.0802-.0531-.0536-.0534-.08-.0525-.0802-.0536-.08-.0273-.1046-.0265h-.1604v-.318h3.2971l3.4305 6.6478 3.7507-6.6478h2.7922v.318h-.1865l-.0804.0265-.0793.0273-.0797.0536-.0536.0525-.1592.1065-.0536.08-.0525.08-.0536.1062-.0534.1058-.0266.16-.0265.159v7.234zm21.5669 1.7554h-.3996l-6.8874-7.3132v5.9028l.0533.1334.0268.106.0525.1066.0275.1326.0795.0802.0797.079.0534.0536.079.08.0802.0534.0802.0534.0793.0265.0797.026.186.0265v.3193h-3.2174v-.3193l.1595-.0266.08-.0259.0792-.0265.1867-.1066.0536-.08.0534-.0535.1326-.1593.0266-.1326.0534-.1065.079-.2394v-7.6057l-.0263-.1329-.0266-.1321-.0527-.1063-.0265-.1073-.0266-.08-.08-.0799-.0526-.0792-.0802-.0534-.08-.0525-.0793-.0275-.1862-.08-.1865-.0253v-.2926h2.899l5.3186 5.7431v-4.148l-.0263-.1591v-.1336l-.0261-.1602-.0532-.1326-.0278-.1065-.0265-.1061-.079-.08-.0534-.1065-.0544-.0792-.0792-.0269-.1602-.1067-.0792-.0534-.1058-.0266-.1858-.0254v-.2925h3.2171v.2925l-.0792.0254h-.08l-.1068.0266-.0533.0534-.1858.1067-.0536.0269-.08.0792-.0802.1065-.0254.08-.0795.106-.0543.1066-.0256.1326-.0266.1602v8.9624zm-19.3064-.1341v-.3194h.1063l.1065-.0265.1853-.079.1602-.1068.079-.0534.0809-.0802.025-.079.055-.0812.0524-.1316.0266-.1068.0536-.2392v-7.5253l-.0268-.1333-.0534-.1319-.0266-.1065-.0531-.1334-.053-.08-.0536-.079-.0806-.0799-.0793-.0534-.0527-.0531-.1058-.0537-.1608-.08h-.1856v-.3179h7.9502l.772 2.1796-.2659.081-.1333-.1334-.1327-.1334-.1326-.1319-.1334-.1065-.2927-.1865-.1332-.0795-.1592-.053-.1585-.0535-.161-.0266-.1588-.0534-.1597-.027-.1867-.0264h-.2119l-.3996-.0268h-1.9415l-.2126.0268h-.1066l-.0529.0263-.1333.0537-.1077.0534-.0247.0536-.0543.0529-.0257.1063-.0268.1858v2.367h2.978l.2932-.0261.2126-.08.0802-.0263.0795-.0534.1331-.0802.0525-.08.0543-.0524.0524-.1592.0525-.1336h.266v2.7647h-.266l-.0525-.2126-.0275-.0532-.0237-.0797-.0543-.0802-.0525-.0275-.0534-.079-.0543-.0537-.1049-.0258-.0543-.0264-.1324-.027-.106-.0266-.2933-.0263-.3453-.0266h-2.6327v2.8722l.0268.1857v.0802l.0256.0525.0544.0807.0246.026.0544.0273.0534.0527.1333.0534.1595.0263h2.9777l.346-.0263.3459-.08.187-.0258.1591-.0536.1849-.0525.1867-.0807.1595-.0802.1333-.1058.1602-.1067.1848-.1593.1336-.1333.1326-.1585.2667.0783-.7711 2.1807h-8.5365zm24.2791-8.1374l-.0266-.2384-.0273-.16-.0268-.1328-.0792-.08-.0534-.0797-.1059-.0534-.1324-.0268h-.7453l-.2393.0268h-.2392l-.2126.0263-.1858.027-.186.0535-.1601.0265-.1324.08-.1602.0527-.1602.0802-.1326.1326-.1326.1338-.1592.1592-.3199.3989-.2662-.106.7977-2.3135h8.4568l.7711 2.3134-.2394.106-.3194-.3988-.186-.1592-.1333-.1338-.1054-.1326-.1604-.0802-.133-.0527-.1332-.08-.1858-.0265-.1592-.0534-.1858-.027-.2126-.0264h-.2133l-.265-.0268h-.7445l-.1066.0268-.107.0534-.0531.0266-.0534.0533-.0268.0266-.0266.0534-.0256.1329-.0544.1599v6.9408l.0273.132.0527.266.0266.1065.0268.1048.0534.0812.079.1056.0534.0802.0536.0266.16.1067.1057.0532.106.0258.187.0266v.3194h-4.201v-.3194l.2126-.0266.2125-.079.0802-.0536.079-.0534.0534-.0534.0802-.0802.0534-.079.0257-.0811.0536-.1049.0256-.1065.0268-.1327.0273-.1333v-.132l.0266-.1864zm10.7426-2.1797l.425.0265h.187l.1857.0259.3725.0538.3191.0261.2658.08.2396.08.2928.0801.1063.0257.0531-.0257.0264-.0268h.0263l.0268-.0268.0257-.1329v-.0538l.0275-.0261.2662-.0797.7443 2.4203-.2925.1061-.2133-.2128-.1061-.1329-.1322-.1065-.1594-.1056-.1602-.1334-.1587-.0797-.1865-.1063-.2133-.1065-.2128-.0534-.239-.1068-.2394-.0534-.2657-.0526-.2667-.0264-.2643-.0273-.3191-.0256h-.1611l-.1595.0256-.345.0273-.346.079-.1857.027-.1329.0793-.1599.0805-.0797.0265-.0795.0266-.107.106-.0532.0537-.0533.0531-.0793.1334-.0802.159-.0534.1594v.1597l.0256.186.0544.1865.0802.1326.0527.0537.0533.0526.08.08.0802.0531.1858.1061.1858.1068.2126.0792.2125.08.2392.1068.5585.1335.532.1592.586.1593.5835.1867.2935.1065.2923.1049.2385.1333.2935.1336.2394.159.2392.2135.2126.1851.186.2126.1592.213.0797.1602.0536.1058.1334.2919.0524.1592.0266.1343.0266.1592.0268.1865v.1585l.0263.186-.0263.346-.0268.1867-.0266.1592-.0266.1592-.0515.1336-.1592.3186-.1343.2942-.0792.132-.1334.1063-.0792.1328-.1334.0802-.1333.1327-.1315.1067-.2937.1858-.1592.1065-.1602.08-.3715.1595-.212.0533-.1866.0537-.4252.1326h-.2402l-.2128.0534-.4515.054h-.9569l-.3991-.0282-.373-.0524-.3457-.0266-.3462-.0536-.2913-.079-.6124-.1592h-.1599l-.026.0256-.0533.0266-.0256.0266-.0268.0536-.0273.1056-.0259.0536h-.0268l-.1326.0534-.1334.0256-1.0646-2.9512.3194-.1058.1601.1858.1592.186.1602.1592.2126.1868.1865.1599.2126.1592.2384.1329.2401.1321.2653.1338.2667.1066.2926.1058.2925.08.2916.0536.3194.0531.3727.0527h.6656l.2638-.0254.267-.0538.2128-.0537.212-.0531.187-.0793.1593-.08.1326-.0799.0534-.0536.0534-.079.1058-.0802.08-.1334.0536-.106.0534-.1324.0265-.1075v-.5581l-.0533-.1065-.0802-.1592-.1056-.1602-.0802-.0792-.0793-.08-.1599-.1067-.186-.106-.1867-.0798-.2392-.1058-.2392-.08-.478-.1336-.5861-.186-.5576-.1322-.5586-.1867-.2925-.1058-.267-.1068-.265-.1333-.2391-.1059-.266-.1594-.213-.159-.2122-.187-.1867-.2123-.0525-.1068-.1074-.1067-.1327-.265-.1068-.2663-.0526-.1319-.0266-.1602-.0266-.186-.0256-.1601-.0275-.1858v-.3457l.0275-.1865.0256-.159.0266-.1601.0536-.1597.079-.1322.08-.1599.054-.1336.1064-.1326.08-.107.1058-.1331.1065-.1327.1329-.1065.1065-.106.2916-.2127.1334-.08.1333-.079.185-.0808.1605-.079.3189-.1327.3727-.1065.1858-.0527.1592-.0536.3718-.0539.3725-.0258z" fill-rule="evenodd"/><g fill-rule="evenodd"><path d="M72.3587 19.132l-.1856-.1059-.2128-.1058-.16-.1858-.186-.1604-.1333-.159-.079-.1067-.027-.08-.1054-.1858-3.724-8.7483h-1.941l-2.42 5.9028-1.5154 3.483-.4261.4262.1601.346h2.526v-.2926h-.1065l-.0798-.0275h-.0538l-.1054-.0257-.0797-.0258-.0531-.0544-.0805-.0533-.079-.0527-.0263-.107-.0536-.1054-.0264-.0795v-.2666l.0534-.16.0266-.1592.611-1.4366h4.255l.5584 1.3574.08.1858.0261.1592.0273.1865v.1853l-.0273.0275-.0261.1053-.0531.107-.0795.0527-.1066.1075-.1599.0517-.1592.0276h-.106v.2925h4.467v-.2925zm-7.9244-3.935l1.6225-4.1747 1.6488 4.1748zm12.4989-6.0363h.4523l.1855.0268.2136.0263.3718.0536.2925.0269.2926.079.2391.0538.2926.1054h.16l.0255-.0254V9.48l.027-.0269.0267-.1324.026-.0536h.0264l.2401-.08.7709 2.4468-.2923.0797-.2136-.2126-.1058-.1063-.1592-.1329-.1329-.08-.1599-.1335-.1867-.1063-.186-.106-.1868-.0793-.2116-.1065-.2401-.08-.239-.0534-.2925-.0527-.2392-.0538-.3191-.0261h-.6115l-.3461.0534-.3718.0792-.1602.0266-.159.0534-.1335.1065-.079.0261-.0807.0275-.1054.106-.0538.0793-.0527.0264-.08.1608-.08.1327-.0526.159v.3727l.079.1329.08.1335.0534.079.0526.0803.0798.0529.0792.0531.1597.1065.1867.08.2129.106.2398.0796.2387.0797.5317.1599.5588.1592.5849.1592.5853.213.3187.0805.2925.1324.2392.1326.2667.1593.2662.1601.2382.1334.2136.2125.1858.2124.1599.2394.0795.1068.0526.1592.1331.2655.0273.1604.0261.1585.0536.1601.0266.16v.7183l-.0266.1597-.0536.185-.026.1334-.0274.1606-.1592.3191-.1599.2653-.0792.1324-.1061.1333-.1065.1334-.1334.1065-.1063.132-.1592.081-.2662.2117-.1592.1075-.186.0517-.3718.161-.1865.0258-.1863.0806-.4256.1061-.2394.0268-.2392.0254-.4783.0543-.5322.0247h-.4257l-.3725-.0247-.3718-.0543-.346-.0254-.3454-.0802-.3191-.0529-.5852-.1601h-.1857l-.0537.0536-.0265.0258-.0266.0541-.0532.1059-.026.0268v.0268l-.1332.0254-.1328.0543-1.0635-2.9262.3192-.1327.186.1858.159.1867.1591.1583.187.16.186.1605.2124.1858.2399.1331.2387.1331.2667.1324.2386.1068.293.1058.318.0534.2933.0802.3191.0534.3457.0266.3457.0265.346-.0265.2662-.0266.2657-.0268.2394-.0534.2128-.0534.1856-.0802.1331-.1056.1333-.0802.079-.0524.0537-.053.08-.0806.0797-.1326.08-.1058.0526-.134v-.1332l.0263-.1065v-.2384l-.0263-.1064v-.1068l-.0275-.0533-.079-.1858-.1061-.1604-.08-.0517-.079-.081-.1601-.1058-.1863-.1333-.213-.08-.2117-.1068-.2401-.1058-.5052-.1592-.5853-.1333-.5578-.1327-.5595-.2126-.2926-.08-.2652-.1333-.2667-.105-.2653-.1341-.2392-.1592-.107-.079-.1065-.0802-.2126-.1602-.1592-.2126-.08-.1329-.08-.1065-.1335-.2394-.132-.2926-.0533-.1599-.0266-.1319v-.16l-.0266-.1867-.027-.186v-.3718l.027-.1601.0266-.159.0266-.1336.0534-.159.0527-.1326.079-.186.08-.1065.0808-.1327.0793-.1601.1065-.1066.106-.1333.133-.1054.1065-.133.2925-.186.1334-.08.1326-.1068.1865-.0534.159-.0793.3189-.1333.3718-.1329.1597-.0531.1867-.0268.3727-.0536.3725-.0532h.373zM41.2726 19.4522v-.2925l.106-.0275h.1068l.186-.0793.1331-.1056.0797-.0536.0798-.0804.0265-.1054.0527-.0795.0539-.1065.026-.1065.0537-.2926.0263-.1333v-7.2598l-.0263-.1328-.0536-.2923-.08-.2126-.0527-.08-.0526-.079-.0539-.08-.0797-.0536-.0532-.0531-.1067-.0534-.079-.0264-.1068-.0529h-.186v-.3191h7.924l.7721 2.1798-.2669.107-.1056-.1331-.1597-.1331-.133-.1326-.1068-.107-.2919-.1858-.159-.08-.1608-.08-.1592-.0524-.1592-.0266-.16-.0536-.159-.0263-.186-.0268-.1867-.0266h-2.5521l-.0809.0266h-.0797l-.1326.0533-.0793.0802-.0533.0525-.0266.0536-.0534.1331-.0266.1863-.026.1865v2.18H47.15l.3191-.0263h.106l.16-.0269.2128-.0533.0795-.0257.107-.0536.0524-.0539.0537-.026.0531-.08.0534-.08.0527-.1326.0538-.1865h.2926v2.7917h-.2926l-.0538-.1858v-.0802l-.0527-.0792-.027-.0536-.0795-.0798-.0537-.0536-.0524-.0534-.0807-.0265-.0795-.0266-.1324-.0266-.1067-.0266-.266-.0268-.3191-.0256h-2.6857v2.6586l.0261.2401.0266.186.0273.0525.026.08.0267.0536.0533.0265.0266.0534.0527.0525.1326.0268.1609.0534h2.9509l.373-.0534.3457-.0527.1587-.0534.1592-.0266.2133-.0536.1593-.079.1599-.08.1592-.107.1333-.1058.1868-.159.1326-.1343.159-.1594.2398.0534-.7713 2.208h-8.51z"/><path d="M38.5067 17.8298v.345l.0266.1333.0534.1334.0536.1065.0527.132.0263.081.0807.08.0529.079.0792.0527.0534.0534.1058.0543.1868.0518.0802.0275h.1056v.2925h-4.4413v-.2925l.1868-.0275.0795-.0257.08-.0258.1065-.0544.0526-.0533.08-.0527.08-.079.079-.1611.0536-.132.0529-.1065.0273-.1333v-.1334l.0263-.1592V8.0175l-.0263-.2126v-.133l-.0536-.0528-.0266-.0536h-.0536l-.079-.0273-.0269-.026-.0792-.0266-.1602-.0264h-1.5686l-.319.0264-.5581.0526-.2665.0273-.2394.0266-.2124.0524-.1862.08-.186.0802-.16.08-.1594.106-.08.0531-.0797.0795-.08.053-.079.0801-.133.16-.2663-.1339.7984-2.3394h11.1152l.7977 2.3394-.2655.1339-.0537-.08-.0797-.08-.1326-.133-.186-.1327-.0532-.053-.1068-.0533-.0801-.0539-.0793-.026-.1855-.0803-.187-.08-.2117-.0524-.4792-.0538-.585-.0527-.2918-.0263h-1.5697l-.159.0263-.1333.0527-.0264.0273h-.0527l-.0536.0536-.0263.0527-.0536.133v10.0252zm18.8807-3.7232l-2.2602.5314-2.9521-3.7483-.1858-.2653-.1862-.2138-.16-.1862-.1857-.1327-.1602-.1333-.08-.0259-.0797-.0536-.2126-.08-.133-.0263h-.1064V9.48h4.7599v.2926h-.1592l-.106.0534-.08.0268-.0537.0534-.0531.0527-.0795.0531-.0263.08-.027.0797v.08l-.0267.1053.0266.1075v.106l.0534.1331.0795.1061.08.1329 1.4089 1.9679 1.6487-2.1532.1332-.1868.0533-.186.0264-.08.0263-.08-.0263-.0799v-.0526l-.0264-.08-.0263-.0531-.0536-.0527-.08-.0534-.08-.0268-.053-.0534h-.1854V9.48h3.7761v.2926l-.212.0263-.2129.0537-.213.1058-.2122.0795-.2133.1333-.2392.1597-.08.1331-.1326.106-.0797.1332-.1328.1328z"/><path d="M57.6276 13.9732l.6643 1.0646.2919.5315.319.451.2926.4796.3462.479.3716.5313.3993.5585.2126.2923.1065.1066.0537.1058.3186.2672.5849.5314v.0266l-.0532.0261-.0536.0266h-4.3337v-.2926h.133l.159-.0275.08-.0517.0795-.0543.0539-.0534.08-.0257.0526-.1058.0266-.08.026-.081v-.1061l-.026-.1324-.0539-.1334-.079-.1333-.106-.1858-1.5691-2.1532-1.7824 2.339-.0531.1333-.0798.1068-.0529.1065-.027.0793v.1604l.027.1056.0264.0533.0263.0527.0527.0534.1067.0802.08.0534h.2394v.2925h-3.8563v-.2925h.1065l.1065-.0275.2126-.0793.2401-.1056.2387-.1592.2402-.1597.2389-.213.239-.2404.2127-.2382 2.5794-3.377z"/></g></svg>